<svg width="29" height="20" viewBox="0 0 29 20" fill="none" xmlns="http://www.w3.org/2000/svg">
<g clip-path="url(#clip0_241_1179)">
<path d="M0 0.5H29V19.5H0V0.5Z" fill="white"/>
<path d="M0 0.5H29V1.96111H0V0.5ZM0 3.42222H29V4.88333H0V3.42222ZM0 6.34444H29V7.80556H0V6.34444ZM0 9.26667H29V10.7278H0V9.26667ZM0 12.1944H29V13.6556H0V12.1944ZM0 15.1167H29V16.5778H0V15.1167ZM0 18.0389H29V19.5H0V18.0389Z" fill="#D80027"/>
<path d="M0 0.5H14.5V10.7278H0V0.5Z" fill="#2E52B2"/>
<path d="M2.70152 8.21664L2.4754 7.50553L2.22667 8.21664H1.48047L2.08534 8.64442L1.85922 9.35553L2.4754 8.91664L3.07462 9.35553L2.84285 8.64442L3.45903 8.21664H2.70152ZM5.88417 8.21664L5.6524 7.50553L5.41497 8.21664H4.66877L5.27365 8.64442L5.04753 9.35553L5.6524 8.91664L6.26293 9.35553L6.0368 8.64442L6.64168 8.21664H5.88417ZM9.07813 8.21664L8.83505 7.50553L8.60893 8.21664H7.84577L8.4676 8.64442L8.23018 9.35553L8.83505 8.91664L9.45688 9.35553L9.21946 8.64442L9.82433 8.21664H9.07813ZM12.2551 8.21664L12.029 7.50553L11.7916 8.21664H11.0397L11.6503 8.64442L11.4241 9.35553L12.029 8.91664L12.6395 9.35553L12.3965 8.64442L13.0183 8.21664H12.2551ZM5.6524 4.6833L5.41497 5.39441H4.66877L5.27365 5.8333L5.04753 6.5333L5.6524 6.09997L6.26293 6.5333L6.0368 5.8333L6.64168 5.39441H5.88417L5.6524 4.6833ZM2.4754 4.6833L2.22667 5.39441H1.48047L2.08534 5.8333L1.85922 6.5333L2.4754 6.09997L3.07462 6.5333L2.84285 5.8333L3.45903 5.39441H2.70152L2.4754 4.6833ZM8.83505 4.6833L8.60893 5.39441H7.84577L8.4676 5.8333L8.23018 6.5333L8.83505 6.09997L9.45688 6.5333L9.21946 5.8333L9.82433 5.39441H9.07813L8.83505 4.6833ZM12.029 4.6833L11.7916 5.39441H11.0397L11.6503 5.8333L11.4241 6.5333L12.029 6.09997L12.6395 6.5333L12.3965 5.8333L13.0183 5.39441H12.2551L12.029 4.6833ZM2.4754 1.87219L2.22667 2.57219H1.48047L2.08534 3.01108L1.85922 3.71664L2.4754 3.27775L3.07462 3.71664L2.84285 3.01108L3.45903 2.57219H2.70152L2.4754 1.87219ZM5.6524 1.87219L5.41497 2.57219H4.66877L5.27365 3.01108L5.04753 3.71664L5.6524 3.27775L6.26293 3.71664L6.0368 3.01108L6.64168 2.57219H5.88417L5.6524 1.87219ZM8.83505 1.87219L8.60893 2.57219H7.84577L8.4676 3.01108L8.23018 3.71664L8.83505 3.27775L9.45688 3.71664L9.21946 3.01108L9.82433 2.57219H9.07813L8.83505 1.87219ZM12.029 1.87219L11.7916 2.57219H11.0397L11.6503 3.01108L11.4241 3.71664L12.029 3.27775L12.6395 3.71664L12.3965 3.01108L13.0183 2.57219H12.2551L12.029 1.87219Z" fill="white"/>
</g>
<defs>
<clipPath id="clip0_241_1179">
<rect width="29" height="19" fill="white" transform="translate(0 0.5)"/>
</clipPath>
</defs>
</svg>
